<svg width="29" height="19" viewBox="0 0 29 19" fill="none" xmlns="http://www.w3.org/2000/svg">
<path d="M11.2778 18C11.2778 18.5523 11.7255 19 12.2778 19H16.7222C17.2745 19 17.7222 18.5523 17.7222 18V16.8333C17.7222 16.281 17.2745 15.8333 16.7222 15.8333H12.2778C11.7255 15.8333 11.2778 16.281 11.2778 16.8333V18ZM1 0C0.447716 0 0 0.447715 0 1V2.16667C0 2.71895 0.447715 3.16667 1 3.16667H28C28.5523 3.16667 29 2.71895 29 2.16667V1C29 0.447716 28.5523 0 28 0H1ZM4.83333 10.0833C4.83333 10.6356 5.28105 11.0833 5.83333 11.0833H23.1667C23.719 11.0833 24.1667 10.6356 24.1667 10.0833V8.91667C24.1667 8.36438 23.719 7.91667 23.1667 7.91667H5.83333C5.28105 7.91667 4.83333 8.36438 4.83333 8.91667V10.0833Z" fill="#AFAFB0"/>
</svg>
