<svg width="24" height="24" viewBox="0 0 24 24" fill="none" xmlns="http://www.w3.org/2000/svg">
<path d="M10.757 11.9999L15.707 16.9499C15.8026 17.0422 15.8787 17.1525 15.9311 17.2745C15.9836 17.3965 16.0111 17.5278 16.0123 17.6605C16.0135 17.7933 15.9882 17.925 15.9379 18.0479C15.8876 18.1708 15.8133 18.2824 15.7194 18.3763C15.6256 18.4702 15.5139 18.5445 15.391 18.5948C15.2681 18.645 15.1364 18.6703 15.0036 18.6692C14.8709 18.668 14.7396 18.6404 14.6176 18.588C14.4956 18.5356 14.3853 18.4594 14.293 18.3639L8.63605 12.7069C8.44858 12.5194 8.34326 12.2651 8.34326 11.9999C8.34326 11.7348 8.44858 11.4805 8.63605 11.2929L14.293 5.63594C14.4817 5.45378 14.7343 5.35298 14.9964 5.35526C15.2586 5.35754 15.5095 5.46271 15.6949 5.64812C15.8803 5.83353 15.9854 6.08434 15.9877 6.34654C15.99 6.60873 15.8892 6.86133 15.707 7.04994L10.757 11.9999Z" fill="#697077"/>
</svg>
