<svg width="20" height="20" viewBox="0 0 20 20" fill="none" xmlns="http://www.w3.org/2000/svg">
<path d="M8.74228e-07 10C9.89033e-07 8.68678 0.258659 7.38642 0.761205 6.17316C1.26375 4.95991 2.00035 3.85752 2.92893 2.92893C3.85752 2.00034 4.95991 1.26375 6.17317 0.761203C7.38642 0.258656 8.68678 -9.89033e-07 10 -8.74228e-07C11.3132 -7.59423e-07 12.6136 0.258657 13.8268 0.761205C15.0401 1.26375 16.1425 2.00035 17.0711 2.92893C17.9997 3.85752 18.7362 4.95991 19.2388 6.17317C19.7413 7.38642 20 8.68678 20 10L10 10L8.74228e-07 10Z" fill="url(#paint0_linear_2_2280)" fill-opacity="0.5"/>
<circle cx="10.0001" cy="10" r="9.25" stroke="#999292" stroke-width="1.5"/>
<circle cx="10" cy="10" r="2.88636" fill="#FEFEFE" stroke="#999292" stroke-width="1.5"/>
<path d="M6.8183 10H0.00012207" stroke="#999292" stroke-width="1.5"/>
<path d="M18.8814 9.99997L12.5876 9.99997" stroke="#999292" stroke-width="1.5"/>
<defs>
<linearGradient id="paint0_linear_2_2280" x1="23" y1="-9.31315e-07" x2="-3" y2="9.5" gradientUnits="userSpaceOnUse">
<stop stop-color="#969393"/>
<stop offset="1" stop-color="#8D8888" stop-opacity="0"/>
</linearGradient>
</defs>
</svg>
