<svg width="24" height="24" viewBox="0 0 24 24" fill="none" xmlns="http://www.w3.org/2000/svg">
<path d="M13.314 12.071L8.36402 7.12098C8.18187 6.93238 8.08107 6.67978 8.08335 6.41758C8.08563 6.15538 8.1908 5.90457 8.37621 5.71916C8.56161 5.53375 8.81243 5.42859 9.07462 5.42631C9.33682 5.42403 9.58942 5.52482 9.77802 5.70698L15.435 11.364C15.6225 11.5515 15.7278 11.8058 15.7278 12.071C15.7278 12.3361 15.6225 12.5905 15.435 12.778L9.77802 18.435C9.58942 18.6171 9.33682 18.7179 9.07462 18.7157C8.81243 18.7134 8.56161 18.6082 8.37621 18.4228C8.1908 18.2374 8.08563 17.9866 8.08335 17.7244C8.08107 17.4622 8.18187 17.2096 8.36402 17.021L13.314 12.071Z" fill="#B6B8BC"/>
</svg>
